<svg id="Layer_1" data-name="Layer 1" xmlns="http://www.w3.org/2000/svg" viewBox="0 0 629.99 464.11"><defs><style>.cls-1{fill:#4d4d4d;}.cls-2{fill:#d46739;}</style></defs><path class="cls-1" d="M417.75,0a128.13,128.13,0,0,1,0,128.16l-53.43,92.55-37,64.1H221.85a96.14,96.14,0,1,1,0-192.27H336.53l-37,64.08h-77c-17.45,0-32.21,13.69-32.69,31.14a32,32,0,0,0,32,33h68.46L417.75,0Z"/><polygon class="cls-2" points="466.68 219.68 431.03 281.42 429.07 284.81 355.07 284.81 394.02 217.33 400.27 206.51 429.68 155.58 466.68 219.68"/><polygon class="cls-1" points="504.28 284.81 456.82 284.81 480.55 243.71 504.28 284.81"/><path class="cls-1" d="M91.21,323.36q-14.73-7-34.1-7H0V432.21H57.11q19.38,0,34.1-7a54.3,54.3,0,0,0,23-20q8.26-13,8.27-31,0-17.88-8.27-30.79A54.54,54.54,0,0,0,91.21,323.36ZM79.63,389.25a22.58,22.58,0,0,1-9.69,9.35,31.62,31.62,0,0,1-14.48,3.15H39.07v-55H55.46a31.74,31.74,0,0,1,14.48,3.14,22.8,22.8,0,0,1,9.69,9.27,29.85,29.85,0,0,1,3.47,14.9Q83.1,383,79.63,389.25Z"/><polygon class="cls-1" points="255.04 316.32 217.29 316.32 193.43 356.47 169.78 316.32 128.56 316.32 172.27 389.71 172.27 432.21 211.34 432.21 211.34 390.18 255.04 316.32"/><path class="cls-1" d="M290.63,316.33,240,432.21H279.7l7.77-20.2h44.07l7.76,20.2h40.39L329,316.33Zm7.65,67.54,11.22-29.19,11.22,29.19Z"/><polygon class="cls-1" points="464.78 316.32 436.4 383.95 408.83 316.32 366.78 316.32 415.78 432.21 454.19 432.21 503.19 316.32 464.78 316.32"/><path class="cls-1" d="M589.6,432.21H630L579.34,316.33H540.93L490.28,432.21H530l7.76-20.2h44.07Zm-41-48.34,11.22-29.19L571,383.87Z"/><path class="cls-2" d="M13.19,447.12A11.27,11.27,0,0,0,8.08,446H0V463.8H8.08a11.27,11.27,0,0,0,5.11-1.11,8.37,8.37,0,0,0,3.45-3.1,9.42,9.42,0,0,0,0-9.38A8.34,8.34,0,0,0,13.19,447.12ZM13,457.83a4.91,4.91,0,0,1-2,1.92,6.63,6.63,0,0,1-3.08.67H4.12v-11H7.88a6.63,6.63,0,0,1,3.08.68,4.86,4.86,0,0,1,2,1.9,6.32,6.32,0,0,1,0,5.86Z"/><rect class="cls-2" x="22.9" y="446.01" width="4.12" height="17.79"/><polygon class="cls-2" points="49.75 446.01 43.2 457.06 36.54 446.01 33.14 446.01 33.14 463.8 37 463.8 37 453.35 42.21 461.92 44.06 461.92 49.3 453.12 49.32 463.8 53.19 463.8 53.13 446.01 49.75 446.01"/><rect class="cls-2" x="59.31" y="446.01" width="4.12" height="17.79"/><path class="cls-2" d="M75.14,446,67.21,463.8h4.22L73,460h8.25l1.58,3.81h4.32l-8-17.79Zm-.82,10.85,2.83-6.81L80,456.86Z"/><path class="cls-2" d="M106.23,448.32a9.36,9.36,0,0,0-3.07-1.93,11.35,11.35,0,0,0-7.74,0,9.39,9.39,0,0,0-3.1,1.93,8.87,8.87,0,0,0-2,2.93,9.66,9.66,0,0,0,0,7.32,8.9,8.9,0,0,0,2,2.92,9.19,9.19,0,0,0,3.1,1.93,10.73,10.73,0,0,0,3.9.69,10.5,10.5,0,0,0,3.85-.69,9.5,9.5,0,0,0,3.07-1.92,8.87,8.87,0,0,0,2-2.92,9.08,9.08,0,0,0-2-10.26Zm-1.8,8.9a5.52,5.52,0,0,1-1.18,1.8,5.26,5.26,0,0,1-1.77,1.17,5.82,5.82,0,0,1-2.2.41,5.91,5.91,0,0,1-2.21-.41A4.94,4.94,0,0,1,95.31,459a5.43,5.43,0,0,1-1.17-1.81,6.56,6.56,0,0,1,0-4.62,5.36,5.36,0,0,1,1.18-1.8,5.22,5.22,0,0,1,1.76-1.17,6.13,6.13,0,0,1,4.41,0,5.07,5.07,0,0,1,1.77,1.17,5.49,5.49,0,0,1,1.17,1.8,6.59,6.59,0,0,1,0,4.63Z"/><polygon class="cls-2" points="134.53 446.01 129.76 453.91 125.02 446.01 120.65 446.01 127.54 457.46 127.54 463.8 131.66 463.8 131.66 457.5 138.57 446.01 134.53 446.01"/><path class="cls-2" d="M157,448.32a9.25,9.25,0,0,0-3.07-1.93,11.35,11.35,0,0,0-7.74,0,9.39,9.39,0,0,0-3.1,1.93,8.69,8.69,0,0,0-2,2.93,9.54,9.54,0,0,0,0,7.32,8.73,8.73,0,0,0,2,2.92,9.19,9.19,0,0,0,3.1,1.93,10.73,10.73,0,0,0,3.9.69,10.5,10.5,0,0,0,3.85-.69A9.39,9.39,0,0,0,157,461.5a8.72,8.72,0,0,0,2.05-2.92,9.5,9.5,0,0,0,0-7.35A8.89,8.89,0,0,0,157,448.32Zm-1.8,8.9A5.36,5.36,0,0,1,154,459a5.26,5.26,0,0,1-1.77,1.17,5.82,5.82,0,0,1-2.2.41,6,6,0,0,1-2.21-.41,5,5,0,0,1-1.76-1.17,5.43,5.43,0,0,1-1.17-1.81,6.56,6.56,0,0,1,0-4.62,5.36,5.36,0,0,1,1.18-1.8,5.26,5.26,0,0,1,1.77-1.17,5.77,5.77,0,0,1,2.19-.41,5.87,5.87,0,0,1,2.21.41,5.07,5.07,0,0,1,1.77,1.17,5.49,5.49,0,0,1,1.17,1.8,6.59,6.59,0,0,1,0,4.63Z"/><path class="cls-2" d="M176.68,455.82a5.25,5.25,0,0,1-1,3.66,4.37,4.37,0,0,1-5.84,0,5.25,5.25,0,0,1-1-3.66V446h-4.12v10a8.07,8.07,0,1,0,16.11,0V446h-4.07Z"/><polygon class="cls-2" points="198.97 456.8 190.13 446.01 186.72 446.01 186.72 463.8 190.79 463.8 190.79 453 199.66 463.8 203.04 463.8 203.04 446.01 198.97 446.01 198.97 456.8"/><path class="cls-2" d="M213.82,450.79a5.21,5.21,0,0,1,1.85-1.17,6.61,6.61,0,0,1,2.36-.41,6.19,6.19,0,0,1,2.49.5,6.5,6.5,0,0,1,2.11,1.51l2.64-2.44a8.47,8.47,0,0,0-3.19-2.29,11.89,11.89,0,0,0-8.17-.11,9.3,9.3,0,0,0-3.1,1.92,8.65,8.65,0,0,0-2,2.92,9.67,9.67,0,0,0,0,7.37,8.77,8.77,0,0,0,2,2.92,9.17,9.17,0,0,0,3.07,1.92,10.79,10.79,0,0,0,3.88.68,13,13,0,0,0,3.82-.59,10.65,10.65,0,0,0,3.37-1.68v-7.21h-3.76v5.21a5.48,5.48,0,0,1-.83.36,7.11,7.11,0,0,1-2.37.4,6.48,6.48,0,0,1-2.33-.41,5.19,5.19,0,0,1-1.83-1.18,5.47,5.47,0,0,1-1.19-1.82,6,6,0,0,1-.42-2.28,6.18,6.18,0,0,1,.42-2.32A5.39,5.39,0,0,1,213.82,450.79Z"/><path class="cls-2" d="M245.35,446l-7.93,17.79h4.22l1.58-3.81h8.25L253,463.8h4.33l-8-17.79Zm-.83,10.85,2.83-6.81,2.82,6.81Z"/><path class="cls-2" d="M272.46,454.8a8.57,8.57,0,0,0-2-.88c-.74-.22-1.47-.42-2.21-.59s-1.41-.34-2-.51a4.52,4.52,0,0,1-1.48-.67,1.32,1.32,0,0,1-.55-1.11,1.69,1.69,0,0,1,.33-1,2.36,2.36,0,0,1,1.09-.72,5.69,5.69,0,0,1,2-.28,9.62,9.62,0,0,1,2.44.34,10.83,10.83,0,0,1,2.49,1.06l1.27-3.13a9.57,9.57,0,0,0-2.88-1.18,14,14,0,0,0-3.3-.39,10.18,10.18,0,0,0-4.18.75,5.69,5.69,0,0,0-2.49,2,5,5,0,0,0-.83,2.79,4.24,4.24,0,0,0,.58,2.33,4.46,4.46,0,0,0,1.48,1.48,9.28,9.28,0,0,0,2,.91c.74.24,1.48.44,2.21.6s1.41.33,2,.51a4.86,4.86,0,0,1,1.48.68,1.35,1.35,0,0,1,.56,1.13,1.52,1.52,0,0,1-.36,1,2.4,2.4,0,0,1-1.1.67,6.65,6.65,0,0,1-2,.24,9.89,9.89,0,0,1-3.17-.52,10.3,10.3,0,0,1-2.7-1.33l-1.4,3.1a9.43,9.43,0,0,0,3.15,1.48,14.54,14.54,0,0,0,4.09.58,10.12,10.12,0,0,0,4.21-.77,5.8,5.8,0,0,0,2.5-2,4.76,4.76,0,0,0,.84-2.74,4.3,4.3,0,0,0-.57-2.31A4.58,4.58,0,0,0,272.46,454.8Z"/><path class="cls-2" d="M291.06,446.79a9.93,9.93,0,0,0-4.12-.78h-7.7V463.8h4.12v-4.91h3.58a9.94,9.94,0,0,0,4.12-.77,6.11,6.11,0,0,0,2.67-2.22,6.78,6.78,0,0,0,0-6.89A6,6,0,0,0,291.06,446.79Zm-1.5,7.94a4.26,4.26,0,0,1-2.84.81h-3.36v-6.17h3.36a4.26,4.26,0,0,1,2.84.81,3.22,3.22,0,0,1,0,4.55Z"/><rect class="cls-2" x="299.5" y="446.01" width="4.12" height="17.79"/><path class="cls-2" d="M321.55,458.08a6,6,0,0,0,2.67-2.2,6,6,0,0,0,.94-3.41,6.2,6.2,0,0,0-.94-3.46,6,6,0,0,0-2.67-2.22,9.91,9.91,0,0,0-4.11-.78h-7.7V463.8h4.11v-5h3.78l3.42,5h4.44l-4-5.7Zm-1.49-7.9a3.24,3.24,0,0,1,0,4.56,4.23,4.23,0,0,1-2.85.83h-3.36v-6.2h3.36A4.29,4.29,0,0,1,320.06,450.18Z"/><rect class="cls-2" x="330.32" y="446.01" width="4.12" height="17.79"/><polygon class="cls-2" points="352.81 456.8 343.97 446.01 340.56 446.01 340.56 463.8 344.63 463.8 344.63 453 353.5 463.8 356.88 463.8 356.88 446.01 352.81 446.01 352.81 456.8"/><path class="cls-2" d="M367.66,450.79a5.26,5.26,0,0,1,1.84-1.17,6.66,6.66,0,0,1,2.37-.41,6.19,6.19,0,0,1,2.49.5,6.5,6.5,0,0,1,2.11,1.51l2.64-2.44a8.47,8.47,0,0,0-3.19-2.29,11.08,11.08,0,0,0-4.26-.78,11,11,0,0,0-3.91.67,9.3,9.3,0,0,0-3.1,1.92,8.65,8.65,0,0,0-2,2.92,9.67,9.67,0,0,0,0,7.37,8.77,8.77,0,0,0,2,2.92,9.07,9.07,0,0,0,3.07,1.92,10.79,10.79,0,0,0,3.88.68,13,13,0,0,0,3.82-.59,10.76,10.76,0,0,0,3.37-1.68v-7.21H375v5.21a5.48,5.48,0,0,1-.83.36,7.11,7.11,0,0,1-2.37.4,6.44,6.44,0,0,1-2.33-.41,5.19,5.19,0,0,1-1.83-1.18,5.47,5.47,0,0,1-1.19-1.82,6,6,0,0,1-.42-2.28,6.18,6.18,0,0,1,.42-2.32A5.39,5.39,0,0,1,367.66,450.79Z"/><polygon class="cls-2" points="401.11 458.72 395.7 446.01 391.26 446.01 398.93 463.8 403 463.8 410.7 446.01 406.61 446.01 401.11 458.72"/><rect class="cls-2" x="414.08" y="446.01" width="4.12" height="17.79"/><path class="cls-2" d="M435.65,454.8a8.57,8.57,0,0,0-2-.88c-.74-.22-1.47-.42-2.21-.59s-1.41-.34-2-.51a4.52,4.52,0,0,1-1.48-.67,1.32,1.32,0,0,1-.55-1.11,1.69,1.69,0,0,1,.33-1,2.36,2.36,0,0,1,1.09-.72,5.69,5.69,0,0,1,2-.28,9.62,9.62,0,0,1,2.44.34,10.83,10.83,0,0,1,2.49,1.06l1.27-3.13a9.57,9.57,0,0,0-2.88-1.18,14,14,0,0,0-3.3-.39,10.18,10.18,0,0,0-4.18.75,5.69,5.69,0,0,0-2.49,2,5,5,0,0,0-.83,2.79,4.24,4.24,0,0,0,.58,2.33,4.46,4.46,0,0,0,1.48,1.48,9.28,9.28,0,0,0,2,.91c.74.24,1.48.44,2.21.6s1.41.33,2,.51a4.86,4.86,0,0,1,1.48.68,1.35,1.35,0,0,1,.56,1.13,1.52,1.52,0,0,1-.36,1,2.4,2.4,0,0,1-1.1.67,6.65,6.65,0,0,1-2,.24,9.89,9.89,0,0,1-3.17-.52,10.3,10.3,0,0,1-2.7-1.33l-1.4,3.1a9.43,9.43,0,0,0,3.15,1.48,14.54,14.54,0,0,0,4.09.58,10.12,10.12,0,0,0,4.21-.77,5.8,5.8,0,0,0,2.5-2,4.76,4.76,0,0,0,.84-2.74,4.3,4.3,0,0,0-.57-2.31A4.58,4.58,0,0,0,435.65,454.8Z"/><path class="cls-2" d="M454.33,455.82a5.3,5.3,0,0,1-1,3.66,4.38,4.38,0,0,1-5.85,0,5.3,5.3,0,0,1-1-3.66V446h-4.12v10a8.07,8.07,0,1,0,16.11,0V446h-4.06Z"/><path class="cls-2" d="M469.57,446l-7.92,17.79h4.21l1.59-3.81h8.24l1.58,3.81h4.32L473.64,446Zm-.82,10.85,2.83-6.81,2.82,6.81Z"/><polygon class="cls-2" points="489.47 446.01 485.35 446.01 485.35 463.8 498.39 463.8 498.39 460.44 489.47 460.44 489.47 446.01"/><path class="cls-2" d="M517.3,446l-7.93,17.79h4.22l1.58-3.81h8.25L525,463.8h4.33l-8-17.79Zm-.83,10.85,2.83-6.81,2.82,6.81Z"/><path class="cls-2" d="M544.89,458.08a5.8,5.8,0,0,0,3.61-5.61,6.2,6.2,0,0,0-.94-3.46,6,6,0,0,0-2.67-2.22,9.91,9.91,0,0,0-4.11-.78h-7.7V463.8h4.11v-5H541l3.42,5h4.45l-4-5.7Zm-1.5-7.9a3.24,3.24,0,0,1,0,4.56,4.19,4.19,0,0,1-2.84.83h-3.36v-6.2h3.36A4.24,4.24,0,0,1,543.39,450.18Z"/><polygon class="cls-2" points="551.4 449.37 557.09 449.37 557.09 463.8 561.21 463.8 561.21 449.37 566.9 449.37 566.9 446.01 551.4 446.01 551.4 449.37"/><rect class="cls-2" x="571.02" y="446.01" width="4.12" height="17.79"/><path class="cls-2" d="M592.59,454.8a8.57,8.57,0,0,0-2-.88c-.74-.22-1.47-.42-2.21-.59s-1.41-.34-2-.51a4.52,4.52,0,0,1-1.48-.67,1.32,1.32,0,0,1-.55-1.11,1.63,1.63,0,0,1,.33-1,2.36,2.36,0,0,1,1.09-.72,5.69,5.69,0,0,1,2-.28,9.62,9.62,0,0,1,2.44.34,11,11,0,0,1,2.49,1.06l1.27-3.13A9.57,9.57,0,0,0,591,446.1a14,14,0,0,0-3.3-.39,10.18,10.18,0,0,0-4.18.75,5.69,5.69,0,0,0-2.49,2,5,5,0,0,0-.83,2.79,4.24,4.24,0,0,0,.58,2.33,4.46,4.46,0,0,0,1.48,1.48,9.28,9.28,0,0,0,2,.91c.74.24,1.48.44,2.21.6s1.41.33,2,.51a4.86,4.86,0,0,1,1.48.68,1.35,1.35,0,0,1,.56,1.13,1.52,1.52,0,0,1-.36,1,2.4,2.4,0,0,1-1.1.67,6.65,6.65,0,0,1-2,.24,9.89,9.89,0,0,1-3.17-.52,10.3,10.3,0,0,1-2.7-1.33l-1.4,3.1a9.43,9.43,0,0,0,3.15,1.48,14.54,14.54,0,0,0,4.09.58,10.12,10.12,0,0,0,4.21-.77,5.8,5.8,0,0,0,2.5-2,4.76,4.76,0,0,0,.84-2.74,4.3,4.3,0,0,0-.57-2.31A4.58,4.58,0,0,0,592.59,454.8Z"/><polygon class="cls-2" points="597.11 449.37 602.8 449.37 602.8 463.8 606.92 463.8 606.92 449.37 612.61 449.37 612.61 446.01 597.11 446.01 597.11 449.37"/><path class="cls-2" d="M629.42,456.28a4.55,4.55,0,0,0-1.48-1.48,8.76,8.76,0,0,0-2-.88c-.74-.22-1.48-.42-2.21-.59s-1.41-.34-2-.51a4.43,4.43,0,0,1-1.48-.67,1.33,1.33,0,0,1-.56-1.11,1.69,1.69,0,0,1,.33-1,2.4,2.4,0,0,1,1.1-.72A5.63,5.63,0,0,1,623,449a9.5,9.5,0,0,1,2.44.34,10.65,10.65,0,0,1,2.49,1.06l1.27-3.13a9.62,9.62,0,0,0-2.87-1.18,14,14,0,0,0-3.3-.39,10.18,10.18,0,0,0-4.18.75,5.69,5.69,0,0,0-2.49,2,5,5,0,0,0-.83,2.79,4.32,4.32,0,0,0,.57,2.33,4.49,4.49,0,0,0,1.49,1.48,9.07,9.07,0,0,0,2,.91,22.65,22.65,0,0,0,2.21.6c.74.16,1.41.33,2,.51a4.79,4.79,0,0,1,1.47.68,1.33,1.33,0,0,1,.56,1.13,1.56,1.56,0,0,1-.35,1,2.39,2.39,0,0,1-1.11.67,6.6,6.6,0,0,1-2,.24,9.87,9.87,0,0,1-3.16-.52A10.53,10.53,0,0,1,616.6,459l-1.39,3.1a9.43,9.43,0,0,0,3.15,1.48,14.54,14.54,0,0,0,4.09.58,10.07,10.07,0,0,0,4.2-.77,5.83,5.83,0,0,0,2.51-2,4.76,4.76,0,0,0,.83-2.74A4.3,4.3,0,0,0,629.42,456.28Z"/></svg>