<svg id="Layer_1" data-name="Layer 1" xmlns="http://www.w3.org/2000/svg" viewBox="0 0 378.56 284.81"><defs><style>.cls-1{fill:#4d4d4d;}.cls-2{fill:#d46739;}</style></defs><path class="cls-1" d="M292,0a128.15,128.15,0,0,1,0,128.16L238.6,220.71l-37,64.1H96.13a96.14,96.14,0,1,1,0-192.27H210.82l-37,64.08h-77c-17.46,0-32.22,13.69-32.7,31.14a32,32,0,0,0,32,33H164.6L292,0Z"/><polygon class="cls-2" points="340.96 219.68 305.31 281.42 303.36 284.81 229.35 284.81 268.31 217.33 274.56 206.51 303.96 155.58 340.96 219.68"/><polygon class="cls-1" points="378.56 284.81 331.11 284.81 354.84 243.71 378.56 284.81"/></svg>