<svg id="Capa_1" data-name="Capa 1" xmlns="http://www.w3.org/2000/svg" viewBox="0 0 92.83 92.83"><defs><style>.cls-1{fill:#4d4d4d;}</style></defs><path class="cls-1" d="M89.83,1.75H3a3,3,0,0,0-3,3V18.08a3,3,0,0,0,3,3H89.83a3,3,0,0,0,3-3V4.75A3,3,0,0,0,89.83,1.75Z"/><path class="cls-1" d="M89.83,36.75H3a3,3,0,0,0-3,3V53.08a3,3,0,0,0,3,3H89.83a3,3,0,0,0,3-3V39.75A3,3,0,0,0,89.83,36.75Z"/><path class="cls-1" d="M89.83,71.75H3a3,3,0,0,0-3,3V88.08a3,3,0,0,0,3,3H89.83a3,3,0,0,0,3-3V74.75A3,3,0,0,0,89.83,71.75Z"/></svg>